<svg xmlns="http://www.w3.org/2000/svg" viewBox="0 0 500 500"><g id="freepik--background-simple--inject-267"><path d="M378.91,99.41c-10.2,3-18.65,11.47-26.2,20.28-26.3,30.67-46.77,68.94-76.58,94.48-28.6,24.49-64.88,35.5-99.75,30.27-19-2.85-37.57-10.32-56.71-11.08s-40.22,7.06-49.79,27.1C61.59,277.84,64.26,301,74,317.4s25.39,26.55,41.6,31.05,33,3.88,49.59,2.28C224.61,345,282.69,327,340.25,308.35c16.45-5.33,33-10.78,48.28-19.84s29.39-22.05,38.26-39.65c6.61-13.12,10.09-29.12,7.29-44.17s-12.72-28.59-25.26-31.16c2.81.57,6.07-23.86,6.23-26.53.56-9.59-.3-20.26-3.46-29.19C406.42,103.2,391.48,95.67,378.91,99.41Z" style="fill:#1443C3"></path><path d="M378.91,99.41c-10.2,3-18.65,11.47-26.2,20.28-26.3,30.67-46.77,68.94-76.58,94.48-28.6,24.49-64.88,35.5-99.75,30.27-19-2.85-37.57-10.32-56.71-11.08s-40.22,7.06-49.79,27.1C61.59,277.84,64.26,301,74,317.4s25.39,26.55,41.6,31.05,33,3.88,49.59,2.28C224.61,345,282.69,327,340.25,308.35c16.45-5.33,33-10.78,48.28-19.84s29.39-22.05,38.26-39.65c6.61-13.12,10.09-29.12,7.29-44.17s-12.72-28.59-25.26-31.16c2.81.57,6.07-23.86,6.23-26.53.56-9.59-.3-20.26-3.46-29.19C406.42,103.2,391.48,95.67,378.91,99.41Z" style="fill:#fff;opacity:0.9"></path></g><g id="freepik--Shadow--inject-267"><ellipse id="freepik--path--inject-267" cx="245.18" cy="412.39" rx="193.89" ry="11.32" style="fill:#f5f5f5"></ellipse></g><g id="freepik--Arrows--inject-267"><path d="M337.51,148a114.39,114.39,0,0,0-170.42-5.14,1.5,1.5,0,0,1-2.11.08h0a1.51,1.51,0,0,1-.07-2.14,117.39,117.39,0,0,1,174.89,5.26Z" style="fill:#263238"></path><path d="M340.16,148.19h-9.34a1.5,1.5,0,0,1-1.5-1.5h0a1.5,1.5,0,0,1,1.5-1.5h6.34v-6.34a1.5,1.5,0,0,1,1.5-1.5h0a1.51,1.51,0,0,1,1.5,1.5Z" style="fill:#263238"></path><path d="M316,318.73l-1.69-2.48a114.41,114.41,0,0,0,48.93-78.52,1.51,1.51,0,0,1,1.67-1.29h0a1.52,1.52,0,0,1,1.31,1.7A117.44,117.44,0,0,1,316,318.73Z" style="fill:#263238"></path><path d="M321.37,321.21l-9.09-2.1,2.1-9.1a1.49,1.49,0,0,1,1.79-1.12h0a1.5,1.5,0,0,1,1.13,1.8l-1.43,6.17,6.18,1.42a1.5,1.5,0,0,1,1.12,1.8h0A1.51,1.51,0,0,1,321.37,321.21Z" style="fill:#263238"></path><path d="M163.14,300.62a116.8,116.8,0,0,1-28.89-59.35l2.95-.5a113.75,113.75,0,0,0,28.16,57.83,1.51,1.51,0,0,1-.08,2.11h0A1.51,1.51,0,0,1,163.14,300.62Z" style="fill:#263238"></path><path d="M129.87,246.34h0a1.51,1.51,0,0,1-.34-2.1l5.49-7.55,7.55,5.49a1.49,1.49,0,0,1,.33,2.09h0a1.49,1.49,0,0,1-2.09.33l-5.13-3.72L132,246A1.5,1.5,0,0,1,129.87,246.34Z" style="fill:#263238"></path></g><g id="freepik--Factory--inject-267"><polygon points="395.76 176.44 387.76 176.44 388.76 143.44 394.76 143.44 395.76 176.44" style="fill:#263238"></polygon><polygon points="395.76 176.44 387.76 176.44 388.76 143.44 394.76 143.44 395.76 176.44" style="fill:#fff;opacity:0.7000000000000001"></polygon><polygon points="395.25 159.69 395.16 156.44 388.37 156.44 388.27 159.69 395.25 159.69" style="fill:#1443C3"></polygon><polygon points="388.47 153.19 395.06 153.19 394.96 149.94 388.56 149.94 388.47 153.19" style="fill:#1443C3"></polygon><polygon points="395.45 166.19 395.35 162.94 388.17 162.94 388.07 166.19 395.45 166.19" style="fill:#1443C3"></polygon><polygon points="395.65 172.69 395.55 169.44 387.97 169.44 387.88 172.69 395.65 172.69" style="fill:#1443C3"></polygon><polygon points="394.86 146.69 394.76 143.44 388.76 143.44 388.66 146.69 394.86 146.69" style="fill:#1443C3"></polygon><polygon points="409.1 176.44 401.1 176.44 402.1 143.44 408.1 143.44 409.1 176.44" style="fill:#263238"></polygon><polygon points="409.1 176.44 401.1 176.44 402.1 143.44 408.1 143.44 409.1 176.44" style="fill:#fff;opacity:0.7000000000000001"></polygon><polygon points="408.59 159.69 408.49 156.44 401.7 156.44 401.6 159.69 408.59 159.69" style="fill:#1443C3"></polygon><polygon points="401.8 153.19 408.39 153.19 408.29 149.94 401.9 149.94 401.8 153.19" style="fill:#1443C3"></polygon><polygon points="408.78 166.19 408.69 162.94 401.5 162.94 401.41 166.19 408.78 166.19" style="fill:#1443C3"></polygon><polygon points="408.98 172.69 408.88 169.44 401.31 169.44 401.21 172.69 408.98 172.69" style="fill:#1443C3"></polygon><polygon points="408.19 146.69 408.1 143.44 402.1 143.44 402 146.69 408.19 146.69" style="fill:#1443C3"></polygon><polygon points="295.43 231.44 418.1 231.44 418.1 179.53 356.76 149.27 295.43 179.53 295.43 231.44" style="fill:#1443C3"></polygon><polygon points="295.43 231.44 418.1 231.44 418.1 179.53 356.76 149.27 295.43 179.53 295.43 231.44" style="fill:#fff;opacity:0.5"></polygon><rect x="332.43" y="190.35" width="48.67" height="41.08" style="fill:#263238"></rect><rect x="332.43" y="190.35" width="8.67" height="41.08" style="fill:#263238"></rect><rect x="332.43" y="190.35" width="8.67" height="41.08" style="fill:#fff;opacity:0.5"></rect><rect x="345.93" y="202.69" width="7.33" height="9.1" style="fill:#263238"></rect><rect x="345.93" y="202.69" width="7.33" height="9.1" style="fill:#fff;opacity:0.6000000000000001"></rect><rect x="353.26" y="202.69" width="4.5" height="9.1" style="fill:#263238"></rect><rect x="353.26" y="202.69" width="4.5" height="9.1" style="fill:#fff;opacity:0.4"></rect><polygon points="355.06 202.69 355.06 205.46 355.18 205.36 355.38 205.49 355.56 205.36 355.8 205.49 356.04 205.36 356.19 205.49 356.37 205.39 356.37 202.69 355.06 202.69" style="fill:#1443C3"></polygon><polygon points="355.06 202.69 355.06 205.46 355.18 205.36 355.38 205.49 355.56 205.36 355.8 205.49 356.04 205.36 356.19 205.49 356.37 205.39 356.37 202.69 355.06 202.69" style="fill:#1443C3;opacity:0.7000000000000001"></polygon><rect x="359.05" y="202.69" width="7.33" height="9.1" style="fill:#263238"></rect><rect x="359.05" y="202.69" width="7.33" height="9.1" style="fill:#fff;opacity:0.6000000000000001"></rect><rect x="366.39" y="202.69" width="4.5" height="9.1" style="fill:#263238"></rect><rect x="366.39" y="202.69" width="4.5" height="9.1" style="fill:#fff;opacity:0.4"></rect><polygon points="368.19 202.69 368.19 205.46 368.3 205.36 368.51 205.49 368.69 205.36 368.92 205.49 369.17 205.36 369.32 205.49 369.5 205.39 369.5 202.69 368.19 202.69" style="fill:#1443C3"></polygon><polygon points="368.19 202.69 368.19 205.46 368.3 205.36 368.51 205.49 368.69 205.36 368.92 205.49 369.17 205.36 369.32 205.49 369.5 205.39 369.5 202.69 368.19 202.69" style="fill:#1443C3;opacity:0.7000000000000001"></polygon><path d="M417.25,181.35,356.76,151.5l-60.49,29.85a2,2,0,0,1-2.68-.91h0a2,2,0,0,1,.91-2.68L356.76,147,419,177.76a2,2,0,0,1,.91,2.68h0A2,2,0,0,1,417.25,181.35Z" style="fill:#263238"></path><g style="opacity:0.5"><path d="M417.25,181.35,356.76,151.5l-60.49,29.85a2,2,0,0,1-2.68-.91h0a2,2,0,0,1,.91-2.68L356.76,147,419,177.76a2,2,0,0,1,.91,2.68h0A2,2,0,0,1,417.25,181.35Z" style="fill:#fff"></path></g><rect x="372.43" y="190.35" width="8.67" height="41.08" style="fill:#263238"></rect><rect x="372.43" y="190.35" width="8.67" height="41.08" style="fill:#fff;opacity:0.5"></rect><rect x="343.76" y="217.94" width="28.67" height="13.5" style="fill:#263238"></rect><rect x="343.76" y="217.94" width="28.67" height="13.5" style="fill:#fff;opacity:0.4"></rect><rect x="321.92" y="213.6" width="4.85" height="17.83" style="fill:#1443C3"></rect><path d="M343.76,219.76a4,4,0,0,1,0-8h28.67v8Z" style="fill:#1443C3"></path><path d="M345.93,215.77a2.17,2.17,0,1,1-2.17-2.17A2.17,2.17,0,0,1,345.93,215.77Z" style="fill:#263238"></path><rect x="303.76" y="213.6" width="20.93" height="17.83" style="fill:#1443C3"></rect><rect x="303.76" y="213.6" width="20.93" height="17.83" style="fill:#fff;opacity:0.30000000000000004"></rect><polygon points="318.42 221.58 314.89 221.58 316.29 217.21 310.04 223.46 313.57 223.46 312.17 227.83 318.42 221.58" style="fill:#fff;opacity:0.8"></polygon></g><g id="freepik--Coins--inject-267"><circle cx="146.41" cy="271.45" r="20.02" style="fill:#1443C3"></circle><circle cx="143.3" cy="271.45" r="20.02" style="fill:#1443C3"></circle><circle cx="143.3" cy="271.45" r="20.02" style="fill:#fff;opacity:0.30000000000000004"></circle><circle cx="143.3" cy="271.45" r="15.39" style="fill:#fff;opacity:0.2"></circle><path d="M130.24,271.45a15.38,15.38,0,0,1,14.22-15.33c-.38,0-.77-.06-1.16-.06a15.39,15.39,0,1,0,0,30.78c.39,0,.78,0,1.16-.06A15.37,15.37,0,0,1,130.24,271.45Z" style="opacity:0.1"></path><g style="opacity:0.1"><path d="M150.53,277a6.7,6.7,0,0,1-4,1.66v2.56h-2.29v-2.49a12.16,12.16,0,0,1-3.22-.6,8,8,0,0,1-2.47-1.23l1.25-2.79a8.53,8.53,0,0,0,2,1.07,9.5,9.5,0,0,0,2.4.55v-3.82a17.13,17.13,0,0,1-2.74-.87,4.79,4.79,0,0,1-1.88-1.41,3.76,3.76,0,0,1-.75-2.46,4.43,4.43,0,0,1,1.38-3.26,6.55,6.55,0,0,1,4-1.65v-2.54h2.29v2.49a10,10,0,0,1,4.64,1.4l-1.14,2.81a9.05,9.05,0,0,0-3.5-1.19v3.89a16.3,16.3,0,0,1,2.71.83,4.78,4.78,0,0,1,1.86,1.4,3.71,3.71,0,0,1,.76,2.44A4.33,4.33,0,0,1,150.53,277ZM143,268a3.69,3.69,0,0,0,1.26.62v-3.25A2.45,2.45,0,0,0,143,266a1.5,1.5,0,0,0-.41,1A1.18,1.18,0,0,0,143,268Zm4.78,7.11a1.32,1.32,0,0,0,.42-1,1.18,1.18,0,0,0-.43-.94,3.73,3.73,0,0,0-1.22-.64v3.16A2.37,2.37,0,0,0,147.8,275.06Z"></path></g><path d="M149,277a6.67,6.67,0,0,1-4,1.66v2.56h-2.29v-2.49a12.23,12.23,0,0,1-3.22-.6,8.13,8.13,0,0,1-2.47-1.23l1.26-2.79a8.27,8.27,0,0,0,2,1.07,9.5,9.5,0,0,0,2.4.55v-3.82a17.47,17.47,0,0,1-2.74-.87,4.87,4.87,0,0,1-1.88-1.41,3.76,3.76,0,0,1-.75-2.46,4.43,4.43,0,0,1,1.38-3.26,6.57,6.57,0,0,1,4-1.65v-2.54H145v2.49a10,10,0,0,1,4.65,1.4l-1.15,2.81a9.05,9.05,0,0,0-3.5-1.19v3.89a16.3,16.3,0,0,1,2.71.83,4.88,4.88,0,0,1,1.87,1.4,3.76,3.76,0,0,1,.75,2.44A4.3,4.3,0,0,1,149,277Zm-7.5-9.07a3.73,3.73,0,0,0,1.25.62v-3.25a2.49,2.49,0,0,0-1.28.65,1.5,1.5,0,0,0-.41,1A1.19,1.19,0,0,0,141.47,268Zm4.78,7.11a1.34,1.34,0,0,0,.41-1,1.2,1.2,0,0,0-.42-.94,3.79,3.79,0,0,0-1.23-.64v3.16A2.45,2.45,0,0,0,146.25,275.06Z" style="fill:#1443C3"></path><circle cx="249.22" cy="105.78" r="20.02" transform="translate(-1.8 207.2) rotate(-45)" style="fill:#1443C3"></circle><circle cx="246.1" cy="105.78" r="20.02" transform="translate(86.61 320.99) rotate(-76.72)" style="fill:#1443C3"></circle><circle cx="246.1" cy="105.78" r="20.02" transform="translate(86.61 320.99) rotate(-76.72)" style="fill:#fff;opacity:0.30000000000000004"></circle><circle cx="246.1" cy="105.78" r="15.39" style="fill:#fff;opacity:0.2"></circle><path d="M233.05,105.78a15.38,15.38,0,0,1,14.22-15.33c-.39,0-.77-.06-1.17-.06a15.39,15.39,0,1,0,0,30.78c.4,0,.78,0,1.17-.06A15.38,15.38,0,0,1,233.05,105.78Z" style="opacity:0.1"></path><g style="opacity:0.1"><path d="M253.33,111.34a6.58,6.58,0,0,1-4,1.66v2.57h-2.29v-2.5a12.64,12.64,0,0,1-3.23-.59,8.25,8.25,0,0,1-2.47-1.24l1.26-2.79a8.2,8.2,0,0,0,2,1.08,8.9,8.9,0,0,0,2.4.54v-3.82a16.61,16.61,0,0,1-2.75-.87,4.74,4.74,0,0,1-1.87-1.4,3.75,3.75,0,0,1-.76-2.46,4.39,4.39,0,0,1,1.39-3.26,6.55,6.55,0,0,1,4-1.66V94.06h2.29v2.49A10.12,10.12,0,0,1,254,98l-1.14,2.81a9.28,9.28,0,0,0-3.5-1.19v3.89a17.57,17.57,0,0,1,2.71.84,4.75,4.75,0,0,1,1.86,1.39,3.77,3.77,0,0,1,.76,2.44A4.31,4.31,0,0,1,253.33,111.34Zm-7.5-9.07a3.52,3.52,0,0,0,1.26.62V99.64a2.53,2.53,0,0,0-1.28.65,1.48,1.48,0,0,0-.41,1A1.15,1.15,0,0,0,245.83,102.27Zm4.78,7.12a1.33,1.33,0,0,0,.41-1,1.17,1.17,0,0,0-.42-.93,3.55,3.55,0,0,0-1.22-.64V110A2.44,2.44,0,0,0,250.61,109.39Z"></path></g><path d="M251.78,111.34a6.63,6.63,0,0,1-4,1.66v2.57h-2.29v-2.5a12.72,12.72,0,0,1-3.23-.59,8.25,8.25,0,0,1-2.47-1.24l1.26-2.79a8.2,8.2,0,0,0,2,1.08,9.07,9.07,0,0,0,2.4.54v-3.82a16.61,16.61,0,0,1-2.75-.87,4.81,4.81,0,0,1-1.87-1.4,3.8,3.8,0,0,1-.76-2.46,4.42,4.42,0,0,1,1.39-3.26,6.55,6.55,0,0,1,4-1.66V94.06h2.29v2.49a10.12,10.12,0,0,1,4.64,1.4l-1.14,2.81a9.28,9.28,0,0,0-3.5-1.19v3.89a17.23,17.23,0,0,1,2.71.84,4.75,4.75,0,0,1,1.86,1.39,3.71,3.71,0,0,1,.76,2.44A4.33,4.33,0,0,1,251.78,111.34Zm-7.51-9.07a3.52,3.52,0,0,0,1.26.62V99.64a2.53,2.53,0,0,0-1.28.65,1.48,1.48,0,0,0-.41,1A1.15,1.15,0,0,0,244.27,102.27Zm4.78,7.12a1.34,1.34,0,0,0,.42-1,1.18,1.18,0,0,0-.43-.93,3.55,3.55,0,0,0-1.22-.64V110A2.44,2.44,0,0,0,249.05,109.39Z" style="fill:#1443C3"></path></g><g id="freepik--Graphic--inject-267"><path d="M295.67,251.17H272.11a2,2,0,0,0-2.05,2.05v23.55a2.05,2.05,0,0,0,2.05,2.06h0v4a1.43,1.43,0,0,0,2.43,1l5-5h16.13a2.05,2.05,0,0,0,2.05-2.06V253.22A2,2,0,0,0,295.67,251.17Z" style="fill:#1443C3"></path><g style="opacity:0.9"><path d="M290.48,262.68H277.93l-.47-1.74h-4.21v.78h3.61l2.61,9.64h8.64v-.78h-8l-.46-1.69h8.78Zm-11.08,5.43-1.26-4.65h11.25l-1.56,4.65Z" style="fill:#fff"></path><circle cx="279.9" cy="272.41" r="0.78" style="fill:#fff"></circle><path d="M288.89,272.41a.78.78,0,1,1-.78-.78A.78.78,0,0,1,288.89,272.41Z" style="fill:#fff"></path></g><circle cx="287.91" cy="260.16" r="4.59" style="fill:#1443C3"></circle><circle cx="287.91" cy="260.16" r="4.59" style="opacity:0.30000000000000004"></circle><g style="opacity:0.9"><path d="M287.77,263.13,284,259.22a1.54,1.54,0,0,1,0-2.17h0a1.53,1.53,0,0,1,2.17,0l1.65,1.71,5-5.05a1.53,1.53,0,0,1,2.17,0h0a1.53,1.53,0,0,1,0,2.16Z" style="fill:#fff"></path></g></g><g id="freepik--Store--inject-267"><rect x="92.21" y="159.65" width="88.34" height="71.79" style="fill:#1443C3"></rect><rect x="92.21" y="159.65" width="88.34" height="71.79" style="fill:#fff;opacity:0.5"></rect><rect x="89.16" y="151.64" width="13.49" height="9.56" style="fill:#1443C3"></rect><rect x="115.98" y="151.64" width="13.49" height="9.56" style="fill:#1443C3"></rect><rect x="142.81" y="151.64" width="13.49" height="9.56" style="fill:#1443C3"></rect><rect x="169.64" y="151.64" width="13.49" height="9.56" style="fill:#1443C3"></rect><g style="opacity:0.2"><rect x="89.16" y="151.64" width="13.49" height="9.56" style="fill:#fff"></rect><rect x="115.98" y="151.64" width="13.49" height="9.56" style="fill:#fff"></rect><rect x="142.81" y="151.64" width="13.49" height="9.56" style="fill:#fff"></rect><rect x="169.64" y="151.64" width="13.49" height="9.56" style="fill:#fff"></rect></g><path d="M103.06,167.81c0,2.33-3.11,4.22-7,4.22s-7-1.89-7-4.22V161.1h13.49Z" style="fill:#1443C3"></path><path d="M129.91,167.81c0,2.33-3.11,4.22-7,4.22s-6.95-1.89-6.95-4.22V161.1h13.5Z" style="fill:#1443C3"></path><path d="M156.76,167.81c0,2.33-3.11,4.22-6.95,4.22s-6.95-1.89-6.95-4.22V161.1h13.5Z" style="fill:#1443C3"></path><path d="M183.14,167.81c0,2.33-2.71,4.22-6.55,4.22s-7-1.89-7-4.22V161.1h13.5Z" style="fill:#1443C3"></path><path d="M116.06,161.1v-9.46H102.57v9.55h0v6.62c0,2.33,3.11,4.22,7,4.22s6.55-1.89,6.55-4.22V161.1Z" style="fill:#263238"></path><path d="M116.06,151.64H102.57v16.17c0,2.33,3.11,4.22,7,4.22s6.55-1.89,6.55-4.22Z" style="fill:#fff;opacity:0.8"></path><path d="M143,161.1v-9.46H129.48v9.55h0v6.62c0,2.33,3.11,4.22,6.95,4.22s6.55-1.89,6.55-4.22V161.1Z" style="fill:#263238"></path><path d="M143,151.64H129.48v16.17c0,2.33,3.11,4.22,6.95,4.22s6.55-1.89,6.55-4.22Z" style="fill:#fff;opacity:0.8"></path><path d="M169.8,161.1v-9.46H156.31v9.55h0v6.62c0,2.33,3.11,4.22,7,4.22s6.55-1.89,6.55-4.22V161.1Z" style="fill:#263238"></path><path d="M169.8,151.64H156.31v16.17c0,2.33,3.11,4.22,7,4.22s6.55-1.89,6.55-4.22Z" style="fill:#fff;opacity:0.8"></path><rect x="130.71" y="182.11" width="40.29" height="22.86" style="fill:#fff;opacity:0.5"></rect><polygon points="156.51 204.95 149.22 204.95 154.69 182.34 161.99 182.34 156.51 204.95" style="fill:#fff;opacity:0.4"></polygon><polygon points="160.05 204.95 158.43 204.95 163.91 182.34 165.52 182.34 160.05 204.95" style="fill:#fff;opacity:0.4"></polygon><polygon points="137.58 204.95 136.76 204.95 142.24 182.34 143.06 182.34 137.58 204.95" style="fill:#fff;opacity:0.4"></polygon><path d="M171.8,205.77H129.91V181.31H171.8Zm-40.29-1.6H170.2V182.91H131.51Z" style="fill:#1443C3"></path><rect x="96.67" y="173.75" width="24.22" height="57.49" style="fill:#1443C3"></rect><rect x="97.7" y="174.79" width="22.16" height="56.44" style="fill:#fff;opacity:0.7000000000000001"></rect><rect x="99.38" y="182.24" width="8.88" height="20.67" style="opacity:0.1"></rect><rect x="109.42" y="182.24" width="8.88" height="20.67" style="opacity:0.1"></rect><rect x="99.38" y="209.16" width="18.92" height="20.67" style="opacity:0.1"></rect><path d="M118.31,181.17H99.38a4.88,4.88,0,0,1,4.88-4.88h9.17a4.88,4.88,0,0,1,4.88,4.88Z" style="opacity:0.1"></path><rect x="99.38" y="203.84" width="1.62" height="4.21" style="fill:#1443C3"></rect><rect x="99.38" y="203.84" width="1.62" height="4.21" style="fill:#fff;opacity:0.30000000000000004"></rect><rect x="101" y="203.84" width="0.32" height="4.21" transform="translate(202.31 411.89) rotate(180)" style="fill:#1443C3"></rect><path d="M100.46,205.49a.68.68,0,1,1-.68-.68A.68.68,0,0,1,100.46,205.49Z" style="fill:#263238"></path><rect x="99.98" y="206.67" width="0.35" height="0.85" style="fill:#fff;opacity:0.5"></rect><circle cx="99.18" cy="205.49" r="0.95" style="fill:#263238"></circle><circle cx="99.18" cy="205.49" r="0.95" style="fill:#fff;opacity:0.2"></circle></g><g id="freepik--Box--inject-267"><polygon points="354.01 248.92 318.38 248.92 325.19 257.86 360.81 257.86 354.01 248.92" style="fill:#1443C3"></polygon><polygon points="354.01 248.92 318.38 248.92 325.19 257.86 360.81 257.86 354.01 248.92" style="fill:#fff;opacity:0.30000000000000004"></polygon><polygon points="367.26 248.92 389.14 248.92 382.7 257.86 360.81 257.86 367.26 248.92" style="fill:#1443C3"></polygon><polygon points="367.26 248.92 389.14 248.92 382.7 257.86 360.81 257.86 367.26 248.92" style="fill:#fff;opacity:0.1"></polygon><rect x="325.19" y="257.86" width="35.63" height="35.63" style="fill:#1443C3"></rect><rect x="325.19" y="257.86" width="35.63" height="35.63" style="fill:#fff;opacity:0.5"></rect><rect x="339.77" y="257.86" width="6.45" height="8.02" style="opacity:0.2"></rect><rect x="339.77" y="287.05" width="6.45" height="6.44" style="opacity:0.2"></rect><rect x="360.81" y="257.86" width="21.88" height="35.63" style="fill:#1443C3"></rect><rect x="360.81" y="257.86" width="21.88" height="35.63" style="fill:#fff;opacity:0.30000000000000004"></rect><rect x="365.03" y="283.01" width="6.45" height="9.83" transform="translate(656.18 -80.33) rotate(90)" style="fill:#fff;opacity:0.8"></rect></g><g id="freepik--Character--inject-267"><path d="M274.32,390.58c8.24.42,12.36.68,20.59,1.33q-2-44.46-5.17-88.84c-.28-3.76-3.92-7-8.12-7.25l-8-.4c-31.19-1.16-62.24-.82-93.4,1q10.45,46.88,19.47,94C224.64,389.48,249.4,389.51,274.32,390.58Z" style="fill:#1443C3"></path><path d="M274.32,390.58c8.24.42,12.36.68,20.59,1.33q-2-44.46-5.17-88.84c-.28-3.76-3.92-7-8.12-7.25l-8-.4c-31.19-1.16-62.24-.82-93.4,1q10.45,46.88,19.47,94C224.64,389.48,249.4,389.51,274.32,390.58Z" style="fill:#fff;opacity:0.5"></path><path d="M208.91,390.1c-8.24.3-12.36.51-20.6,1q-8.34-43.72-17.74-87.21c-.81-3.68,1.94-6.94,6.15-7.24,3.18-.22,4.78-.33,8-.52,4.21-.26,8.2,2.57,8.9,6.27Q201.8,346.18,208.91,390.1Z" style="fill:#1443C3"></path><path d="M220.4,406.53l-3.9-44.62a4.26,4.26,0,0,0-3.7-3.84l-1.61-.21a5.71,5.71,0,0,1-5-5.16l-.71-8.13a5.71,5.71,0,0,1,5.69-6.21h-36a5.71,5.71,0,0,0-5.68,6.21l.71,8.13a5.71,5.71,0,0,0,5,5.16l1.61.21a4.26,4.26,0,0,1,3.7,3.84l3.9,44.62a6.29,6.29,0,0,0,6.27,5.74h36A6.3,6.3,0,0,1,220.4,406.53Z" style="fill:#1443C3"></path><g style="opacity:0.2"><path d="M220.4,406.53l-3.9-44.62a4.26,4.26,0,0,0-3.7-3.84l-1.61-.21a5.71,5.71,0,0,1-5-5.16l-.71-8.13a5.71,5.71,0,0,1,5.69-6.21h-36a5.71,5.71,0,0,0-5.68,6.21l.71,8.13a5.71,5.71,0,0,0,5,5.16l1.61.21a4.26,4.26,0,0,1,3.7,3.84l3.9,44.62a6.29,6.29,0,0,0,6.27,5.74h36A6.3,6.3,0,0,1,220.4,406.53Z" style="fill:#fff"></path></g><path d="M319.48,350.75A13.57,13.57,0,0,1,333,338.36H301.65a13.58,13.58,0,0,0-13.52,12.39L285,386.11h31.34Z" style="fill:#1443C3"></path><path d="M319.48,350.75A13.57,13.57,0,0,1,333,338.36H301.65a13.58,13.58,0,0,0-13.52,12.39L285,386.11h31.34Z" style="fill:#fff;opacity:0.2"></path><path d="M312.49,384.46A353.37,353.37,0,0,1,247.13,386a5.66,5.66,0,0,1-5.38-6c.63-5.73.94-8.59,1.57-14.32a5.55,5.55,0,0,1,6-4.88,259.75,259.75,0,0,0,59.7-1.44,5.56,5.56,0,0,1,6.27,4.58l2.25,14.23A5.65,5.65,0,0,1,312.49,384.46Z" style="fill:#1443C3"></path><path d="M248.93,360.8c-5-.45-7.43-.73-12.36-1.41a5.56,5.56,0,0,0-6.28,4.58L228,378.2a5.65,5.65,0,0,0,5.08,6.26c5.41.74,8.11,1.05,13.54,1.54C247.57,375.92,248,370.88,248.93,360.8Z" style="fill:#1443C3"></path><g style="opacity:0.4"><path d="M312.49,384.46A353.37,353.37,0,0,1,247.13,386a5.66,5.66,0,0,1-5.38-6c.63-5.73.94-8.59,1.57-14.32a5.55,5.55,0,0,1,6-4.88,259.75,259.75,0,0,0,59.7-1.44,5.56,5.56,0,0,1,6.27,4.58l2.25,14.23A5.65,5.65,0,0,1,312.49,384.46Z" style="fill:#fff"></path></g><path d="M346.91,338.36H333a13.57,13.57,0,0,0-13.51,12.39l-3.1,35.36H241.73l-3.09-35.36a13.57,13.57,0,0,0-13.51-12.39H211.21a5.71,5.71,0,0,0-5.69,6.21l.71,8.13a5.71,5.71,0,0,0,5,5.16l1.61.21a4.26,4.26,0,0,1,3.7,3.84l3.9,44.62a6.3,6.3,0,0,0,6.27,5.74H331.44a6.3,6.3,0,0,0,6.28-5.74l3.9-44.62a4.24,4.24,0,0,1,3.7-3.84l1.6-.21a5.7,5.7,0,0,0,5-5.16l.71-8.13A5.7,5.7,0,0,0,346.91,338.36Z" style="fill:#1443C3"></path><path d="M346.91,338.36H333a13.57,13.57,0,0,0-13.51,12.39l-3.1,35.36H241.73l-3.09-35.36a13.57,13.57,0,0,0-13.51-12.39H211.21a5.71,5.71,0,0,0-5.69,6.21l.71,8.13a5.71,5.71,0,0,0,5,5.16l1.61.21a4.26,4.26,0,0,1,3.7,3.84l3.9,44.62a6.3,6.3,0,0,0,6.27,5.74H331.44a6.3,6.3,0,0,0,6.28-5.74l3.9-44.62a4.24,4.24,0,0,1,3.7-3.84l1.6-.21a5.7,5.7,0,0,0,5-5.16l.71-8.13A5.7,5.7,0,0,0,346.91,338.36Z" style="fill:#fff;opacity:0.6000000000000001"></path><polygon points="301.6 393.88 304.95 409.43 310.17 407.63 309.56 392.92 301.6 393.88" style="fill:#ffc3bd"></polygon><path d="M252.65,328.6a53.52,53.52,0,0,0,14.8-1.93L272.37,337s30.79-5.52,34.71,4c3.35,8.09,3.49,58,3.49,58L302,400s-9.39-36.33-9.35-48.36a1.13,1.13,0,0,0-1.82-.91c-4.73,3.68-17.32,11.64-36.38,10.41-2.95-.19-6.4-.83-5.52-10.46A207.2,207.2,0,0,1,252.65,328.6Z" style="fill:#1443C3"></path><path d="M269.71,356c8.45-3.75,20.17-14,25.59-17.8a11.69,11.69,0,0,1,4.21-1.95c-4.7-1-10.72-1-15.9-.59l-12.29,5.43-19.73,8.8-2.44,7c.85,3.75,3.21,4.14,5.33,4.28a56.53,56.53,0,0,0,22.17-2.88C275.67,358.34,261.56,359.61,269.71,356Z" style="opacity:0.1"></path><polygon points="328.58 365.39 339.14 376.06 343.24 372.83 335.1 360.59 328.58 365.39" style="fill:#ffc3bd"></polygon><path d="M342.48,371.37,337.72,375a.57.57,0,0,0-.16.68l2.41,5.2a.93.93,0,0,0,1.22.46,1,1,0,0,0,.17-.1c1.95-1.54,3.62-3,6.07-4.87,2.9-2.21,2.43-1.3,5.87-3.86,2.08-1.54.67-4.16-.29-3.61-4.37,2.54-6.41,2.2-9,1.95A2.2,2.2,0,0,0,342.48,371.37Z" style="fill:#263238"></path><path d="M255.84,336.13l5.26,1.26s9.84-7.65,5.25-5.12c-3.35,1.86-5-2-5.69-4.19-2.09.29-3.92.42-5.3.48Z" style="opacity:0.1"></path><path d="M258.1,328c-13.05,2.16-18.81.13-18.81.13s-9.3,33.41,11.21,33.27c9.09-.06,12.86-3.62,18.77-7.09,13.44-7.89,24.54-19.58,29.74-18.82,7.47,1.08,3.24,10,33.71,34.77l6.32-5.56s-26.33-47.29-40.16-47.19c-13.32.09-34.75,16.83-37.57,16.85S258.1,328,258.1,328Z" style="fill:#1443C3"></path><path d="M303.17,337.39h0a7.13,7.13,0,0,1,3.92,3.58,21.09,21.09,0,0,1,1.06,4.44c.86,1.24,1.88,2.63,3.08,4.15C310.43,339.54,303.17,337.39,303.17,337.39Z" style="opacity:0.1"></path><path d="M310.09,406.23l-6,.36a.55.55,0,0,0-.52.46l-.91,5.67a.91.91,0,0,0,.76,1.06.61.61,0,0,0,.19,0c2.48-.19,4.67-.45,7.76-.63,3.64-.22,2.74.27,7,.08,2.59-.12,2.88-3.08,1.78-3.16-5-.33-6.54-1.76-8.58-3.44A2.23,2.23,0,0,0,310.09,406.23Z" style="fill:#263238"></path><path d="M256.56,283.66c1.69-.65,4.49.47,6.92,4.81s12.77,22.24,9.83,24.54-8.57-4.22-10.64-8.9S253.6,284.81,256.56,283.66Z" style="fill:#263238"></path><path d="M261.1,291.92l.36,2.87-.19,6.21c.56,1.25,1.05,2.32,1.4,3.11a24.23,24.23,0,0,0,3.43,5.4c.44-8.75-2.86-17.59-2.86-17.59Z" style="opacity:0.4"></path><path d="M238.65,328.77s18.07,2.15,29.6-1.64c0,0-3.51-4.42-4-13.27-.45-8.68,3.24-19.1-5.45-29.66a1.65,1.65,0,0,0-1.41-.6c-4.57.32-25.85,2-26.16,5.77C230.87,294.15,240.17,304.35,238.65,328.77Z" style="fill:#263238"></path><path d="M240.42,273.62s2.37,6.91.53,9.87c0,0,6.65.34,8.27-1.83,0,0-.94-.51-1.24-3.15S245.15,273.14,240.42,273.62Z" style="fill:#ffc3bd"></path><path d="M248,278.51c-.27-2.44-2.47-5-6.56-4.94l-.28.25-.29.53s2.51,6.74,7.55,6A7.6,7.6,0,0,1,248,278.51Z" style="isolation:isolate;opacity:0.2"></path><path d="M237.92,264.45c.79,6.35,1,9.06,4.41,12.13,5.16,4.63,12.79,2.27,13.92-4.2,1-5.82-.45-15.23-6.85-17.38a8.74,8.74,0,0,0-11.48,9.45Z" style="fill:#ffc3bd"></path><path d="M252,268.19a14,14,0,0,0,2.06,3.2,2.22,2.22,0,0,1-1.82.47Z" style="fill:#ed893e"></path><path d="M246.37,264.88l-.12-.05a.26.26,0,0,1,0-.36h0a3,3,0,0,1,2.48-1.18.26.26,0,0,1-.05.51,2.46,2.46,0,0,0-2,1A.27.27,0,0,1,246.37,264.88Z" style="fill:#2e353a"></path><path d="M255.8,263.87l-.12-.05a2.48,2.48,0,0,0-2.21-.45.25.25,0,0,1-.33-.14h0a.24.24,0,0,1,.16-.32,3,3,0,0,1,2.69.51.25.25,0,0,1,.06.35.26.26,0,0,1-.25.11Z" style="fill:#2e353a"></path><path d="M248.25,267.56c0,.52.34.92.68.9s.59-.45.55-1-.33-.92-.67-.9S248.22,267,248.25,267.56Z" style="fill:#2e353a"></path><path d="M254.13,267.19c0,.52.33.92.67.9s.58-.45.55-1-.33-.92-.67-.9S254.09,266.67,254.13,267.19Z" style="fill:#2e353a"></path><path d="M254.54,266.25l1.22-.43S255.18,266.83,254.54,266.25Z" style="fill:#2e353a"></path><path d="M248.66,266.62l1.23-.44S249.3,267.2,248.66,266.62Z" style="fill:#2e353a"></path><path d="M248.89,272.77a3.68,3.68,0,0,1-.37-.51.13.13,0,0,1,0-.17h0a.14.14,0,0,1,.17,0,3.35,3.35,0,0,0,2.57,1.62.13.13,0,0,1,0,.25A3.46,3.46,0,0,1,248.89,272.77Z" style="fill:#263238"></path><path d="M240.85,306c-1-4.52-4.43-12.31-4.43-12.31l-2.49-.69-1.22,1.68c2.17,5.4,6,14,6.1,28.2,4.8-.15,10.11-6.92,10.11-6.92l-2.72-6C243.17,311.46,241.82,310.56,240.85,306Z" style="opacity:0.4"></path><path d="M239.74,269.5s4.12-1.88,1.72-5.41c0,0,4.22.58,4.57-3.54,0,0,3.75,1.89,5.86-1.05,0,0,4,2.27,4.92-.57s-2.2-3.59-2.2-3.59.48-2.8-1.14-3.54a3.45,3.45,0,0,0-3.24.49s-.31-3.34-3-3.21a5.5,5.5,0,0,0-4.14,2.54,5.41,5.41,0,0,0-5-.38c-2.67,1.21-3.11,4.85-3.11,4.85s-3,.61-3.49,2.93.47,3.11.47,3.11-1.62,2.23-1.1,4.29,1.6,2,1.6,2a6.68,6.68,0,0,0,1.12,4.58c1.49,1.79,2.62,1,2.62,1s.49,4,3.23,3.59S239.74,269.5,239.74,269.5Z" style="fill:#263238"></path><path d="M236.72,269.59a4.67,4.67,0,0,0,2.43,2.62c1.5.68,2.49-.6,2.28-2.14-.18-1.38-1.19-3.41-2.79-3.44a2.13,2.13,0,0,0-2.09,2.15A2.1,2.1,0,0,0,236.72,269.59Z" style="fill:#ffc3bd"></path><path d="M239.74,285.72l1.62-4.74a11.52,11.52,0,0,0,5.37.68c2-.23,1.93-1.13,1.93-1.13l4,3.46-1.71,2.19-3.07-1.41-2.32,2.58Z" style="fill:#263238"></path><path d="M239.74,285.72l1.62-4.74a11.52,11.52,0,0,0,5.37.68c2-.23,1.93-1.13,1.93-1.13l4,3.46-1.71,2.19-3.07-1.41-2.32,2.58Z" style="fill:#fff;opacity:0.7000000000000001"></path><path d="M261.86,304.43H258a1.14,1.14,0,0,1-1.14-1.45L259,292.86a1.88,1.88,0,0,1,1.75-1.45h3.88a1.14,1.14,0,0,1,1.13,1.45L263.61,303A1.88,1.88,0,0,1,261.86,304.43Z" style="fill:#1443C3"></path><path d="M261.86,304.43H258a1.14,1.14,0,0,1-1.14-1.45L259,292.86a1.88,1.88,0,0,1,1.75-1.45h3.88a1.14,1.14,0,0,1,1.13,1.45L263.61,303A1.88,1.88,0,0,1,261.86,304.43Z" style="fill:#fff;opacity:0.30000000000000004"></path><path d="M262.43,304.43h-3.87a1.14,1.14,0,0,1-1.14-1.45l2.15-10.12a1.88,1.88,0,0,1,1.75-1.45h3.88a1.14,1.14,0,0,1,1.13,1.45L264.18,303A1.88,1.88,0,0,1,262.43,304.43Z" style="fill:#1443C3"></path><path d="M262.43,304.43h-3.87a1.14,1.14,0,0,1-1.14-1.45l2.15-10.12a1.88,1.88,0,0,1,1.75-1.45h3.88a1.14,1.14,0,0,1,1.13,1.45L264.18,303A1.88,1.88,0,0,1,262.43,304.43Z" style="fill:#fff;opacity:0.7000000000000001"></path><path d="M260.89,294.41h.38a1.27,1.27,0,0,0,1.17-1l.08-.38a.76.76,0,0,0-.76-1h-.38a1.27,1.27,0,0,0-1.17,1l-.08.38A.76.76,0,0,0,260.89,294.41Z" style="fill:#1443C3"></path><path d="M261.82,292.67a.5.5,0,0,1-.48.4.31.31,0,0,1-.32-.4.53.53,0,0,1,.49-.4A.31.31,0,0,1,261.82,292.67Z" style="fill:#263238"></path><path d="M261.58,293.83a.53.53,0,0,1-.49.4.32.32,0,0,1-.32-.4.53.53,0,0,1,.49-.4A.32.32,0,0,1,261.58,293.83Z" style="fill:#263238"></path><path d="M272.68,308.63l-5.43-4.19s-2.12-4.62-3.59-5.2a2,2,0,0,0-2.17.72c-.86,1.06-.95,4.41-.08,5.47s3.52,1.76,3.52,1.76l5.08,5.29Z" style="fill:#ffc3bd"></path><path d="M274,313.28c-2.53,2.38-5.07-.54-7.66-3.48a6.27,6.27,0,0,0,3.34-4S277.33,310.16,274,313.28Z" style="fill:#263238"></path><path d="M266.35,309.8l.75.85a7.49,7.49,0,0,0,3.51-4.26c-.54-.37-.92-.58-.92-.58A6.27,6.27,0,0,1,266.35,309.8Z" style="fill:#fff;opacity:0.7000000000000001"></path><path d="M249.22,308.63l5.43-4.19s2.12-4.62,3.59-5.2a2,2,0,0,1,2.17.72c.86,1.06.95,4.41.08,5.47s-3.52,1.76-3.52,1.76l-5.08,5.29Z" style="fill:#ffc3bd"></path><path d="M229.76,303.52c-.87-3.45-1.84-12.09,1.5-14.84s5.26,4.77,6.58,10.56,2,13.55,4.95,12.35a51.94,51.94,0,0,0,7.61-4.66l3.39,4.78s-10.35,11.93-14.9,8.41S230.87,307.89,229.76,303.52Z" style="fill:#263238"></path><path d="M249.14,307.83l3.48,5.15c.73-.76,1.17-1.27,1.17-1.27l-3.39-4.78S249.9,307.3,249.14,307.83Z" style="fill:#fff;opacity:0.7000000000000001"></path></g></svg>