<svg xmlns:xlink="http://www.w3.org/1999/xlink" xmlns="http://www.w3.org/2000/svg" width="33.85" height="34.545" viewBox="0 0 33.85 34.545"><defs><style>.a{fill:#0180fd;}</style></defs><path class="a" d="M121.089,281.037l-10.021.01a6.812,6.812,0,0,0-7.017,6.326h13.482s1.815,0,1.434,2.05l-2.324,13.35s3.508-.884,4.732-2.079h0a7.8,7.8,0,0,0,2.778-4.652l1.527-10.093s.649-4.68-4.589-4.912" transform="translate(-91.853 -281.037)"/><path class="a" d="M97.481,299.73l0-.007,3.324-18.683H99.345a5.884,5.884,0,0,0-5.8,4.864l-5.228,29.678h6.339l1.7-9.525,0-.012h8.635c7.612,0,7.8-6.316,7.8-6.316Z" transform="translate(-88.322 -281.038)"/></svg>