<svg xmlns="http://www.w3.org/2000/svg" version="1.1" xmlns:xlink="http://www.w3.org/1999/xlink" xmlns:svgjs="http://svgjs.dev/svgjs" width="1440" height="560" preserveAspectRatio="none" viewBox="0 0 1440 560"><g mask="url(&quot;#SvgjsMask1041&quot;)" fill="none"><rect width="1440" height="560" x="0" y="0" fill="rgba(0, 77, 255, 1)"></rect><path d="M0,522.913C95.939,530.21,174.189,444.696,241.786,376.226C299.689,317.575,326.342,239.463,355.817,162.496C383.48,90.259,402.685,18.435,408.345,-58.711C415.365,-154.398,444.961,-259.816,392.704,-340.28C339.612,-422.031,232.605,-446.187,139.011,-473.429C45.603,-500.617,-56.2,-534.6,-145.952,-497.066C-233.9,-460.286,-261.834,-353.006,-323.261,-280.107C-383.584,-208.519,-493.328,-165.461,-503.765,-72.43C-514.222,20.782,-426.999,93.449,-373.838,170.726C-329.469,235.223,-276.23,287.477,-219.249,341.158C-148.724,407.598,-96.613,515.564,0,522.913" fill="#003ecc"></path><path d="M1440 989.645C1519.13 998.053 1559.357 891.832 1620.618 841.046 1673.051 797.578 1737.857 770.23 1774.171 712.611 1813.607 650.038 1848.252 575.894 1833.393 503.439 1818.701 431.798 1747.891 389.845 1697.175 337.156 1649.33 287.449 1608.204 230.41199999999998 1544.68 203.493 1476.664 174.671 1398.776 157.582 1328.722 181.022 1259.464 204.195 1220.88 273.504 1172.344 328.074 1123.112 383.427 1053.808 429.63800000000003 1042.484 502.846 1031.138 576.196 1067.243 651.026 1113.395 709.155 1154.524 760.957 1232.294 762.0219999999999 1282.473 805.116 1345.095 858.896 1357.916 980.923 1440 989.645" fill="#3371ff"></path></g><defs><mask id="SvgjsMask1041"><rect width="1440" height="560" fill="#ffffff"></rect></mask></defs></svg>