<svg xmlns="http://www.w3.org/2000/svg" version="1.1" xmlns:xlink="http://www.w3.org/1999/xlink" width="512" height="512" x="0" y="0" viewBox="0 0 512 512" style="enable-background:new 0 0 512 512" xml:space="preserve" class=""><g><path d="M159.989 296.058c-52.924-60.804-64.206-150.836-21.643-224.556a195.3 195.3 0 0 1 19.951-28.414c5.195-6.149-1.701-15.052-8.97-11.592C65.61 71.345 7.7 156.643 7.501 255.486 7.223 392.592 118.895 504.5 256.001 504.5 393.243 504.5 504.5 393.242 504.5 256c0-6.619-.259-13.178-.767-19.667-.63-8.042-11.797-9.652-14.535-2.064a195.346 195.346 0 0 1-15.376 32.72c-54.19 92.181-171.814 123.178-264.417 69.713a195.752 195.752 0 0 1-23.71-16.102" style="stroke-width:15;stroke-linecap:round;stroke-linejoin:round;stroke-miterlimit:10;" fill="none" stroke="#000000" stroke-width="15" stroke-linecap="round" stroke-linejoin="round" stroke-miterlimit="10" data-original="#000000" class=""></path><path d="M271.07 19.981A182.662 182.662 0 0 0 279.314 7.5c15.309 25.438 36.67 46.799 62.108 62.141-25.438 15.277-46.799 36.67-62.108 62.109-15.344-25.438-36.703-46.832-62.142-62.109a182.893 182.893 0 0 0 30.418-22.993M302.594 224.946c-12.719 7.638-23.399 18.335-31.054 31.054-7.672-12.719-18.352-23.416-31.071-31.054a91.501 91.501 0 0 0 31.071-31.071 91.303 91.303 0 0 0 31.054 31.071zM371.86 214.262c-2.538 3.438-4.917 7-7.129 10.675-11.508-19.079-27.528-35.124-46.607-46.582a137.256 137.256 0 0 0 46.607-46.606 136.953 136.953 0 0 0 46.581 46.606 135.52 135.52 0 0 0-14.267 9.865" style="stroke-width:15;stroke-linecap:round;stroke-linejoin:round;stroke-miterlimit:10;" fill="none" stroke="#000000" stroke-width="15" stroke-linecap="round" stroke-linejoin="round" stroke-miterlimit="10" data-original="#000000" class=""></path></g></svg>