<svg xmlns="http://www.w3.org/2000/svg" version="1.1" xmlns:xlink="http://www.w3.org/1999/xlink" width="512" height="512" x="0" y="0" viewBox="0 0 32 32" style="enable-background:new 0 0 512 512" xml:space="preserve"><g><path d="M13 22.25a.75.75 0 0 1-.75-.75v-1.194a2.44 2.44 0 0 1 1.178-2.08l1.122-.673a2.633 2.633 0 0 0 1.271-2.246v-.236c0-1.555-1.265-2.821-2.821-2.821s-2.821 1.266-2.821 2.821a.75.75 0 0 1-1.5 0c0-2.383 1.938-4.321 4.321-4.321s4.321 1.938 4.321 4.321v.236a4.138 4.138 0 0 1-2 3.532l-1.121.673a.932.932 0 0 0-.45.794V21.5a.75.75 0 0 1-.75.75z" fill="#000000" opacity="1" data-original="#000000"></path><path d="M1 31.75a.75.75 0 0 1-.715-.975l1.894-6.025A12.725 12.725 0 0 1 .25 18C.25 10.97 5.97 5.25 13 5.25S25.75 10.97 25.75 18 20.03 30.75 13 30.75c-2.57 0-5.028-.75-7.145-2.176l-4.43 3.044A.75.75 0 0 1 1 31.75zm4.86-4.84c.156 0 .312.049.444.146A11.23 11.23 0 0 0 13 29.25c6.203 0 11.25-5.047 11.25-11.25S19.203 6.75 13 6.75 1.75 11.797 1.75 18c0 2.223.648 4.375 1.875 6.226a.75.75 0 0 1 .09.64L2.368 29.15l3.067-2.108a.75.75 0 0 1 .425-.132z" fill="#000000" opacity="1" data-original="#000000"></path><path d="M31 26.75a.75.75 0 0 1-.425-.132l-3.96-2.72a.75.75 0 0 1 .85-1.236l2.167 1.488-1.347-4.285a.75.75 0 0 1 .09-.64A11.232 11.232 0 0 0 30.25 13c0-6.203-5.047-11.25-11.25-11.25-2.242 0-4.404.655-6.253 1.893a.75.75 0 0 1-.834-1.246A12.685 12.685 0 0 1 19 .25C26.03.25 31.75 5.97 31.75 13c0 2.398-.666 4.724-1.93 6.75l1.895 6.025a.75.75 0 0 1-.715.975z" fill="#000000" opacity="1" data-original="#000000"></path><circle cx="13" cy="24.5" r=".75" fill="#000000" opacity="1" data-original="#000000"></circle></g></svg>