<svg xmlns="http://www.w3.org/2000/svg" version="1.1" xmlns:xlink="http://www.w3.org/1999/xlink" width="512" height="512" x="0" y="0" viewBox="0 0 24 24" style="enable-background:new 0 0 512 512" xml:space="preserve" class=""><g><path d="M12 6c-3.31 0-6 2.69-6 6s2.69 6 6 6 6-2.69 6-6-2.69-6-6-6zm0 11c-2.76 0-5-2.24-5-5s2.24-5 5-5 5 2.24 5 5-2.24 5-5 5zM12 4.5c.28 0 .5-.22.5-.5V2c0-.28-.22-.5-.5-.5s-.5.22-.5.5v2c0 .28.22.5.5.5zM12 19.5c-.28 0-.5.22-.5.5v2c0 .28.22.5.5.5s.5-.22.5-.5v-2c0-.28-.22-.5-.5-.5zM22 11.5h-2c-.28 0-.5.22-.5.5s.22.5.5.5h2c.28 0 .5-.22.5-.5s-.22-.5-.5-.5zM4 11.5H2c-.28 0-.5.22-.5.5s.22.5.5.5h2c.28 0 .5-.22.5-.5s-.22-.5-.5-.5zM17.66 6.84c.13 0 .26-.05.35-.15l1.41-1.41c.2-.2.2-.51 0-.71s-.51-.2-.71 0L17.3 5.98c-.2.2-.2.51 0 .71.1.1.23.15.35.15zM5.99 17.3l-1.41 1.41c-.2.2-.2.51 0 .71a.485.485 0 0 0 .7 0l1.41-1.41c.2-.2.2-.51 0-.71s-.51-.2-.71 0zM18.01 17.3c-.2-.2-.51-.2-.71 0s-.2.51 0 .71l1.41 1.41a.485.485 0 0 0 .7 0c.2-.2.2-.51 0-.71L18 17.3zM5.99 6.7a.485.485 0 0 0 .7 0c.2-.2.2-.51 0-.71L5.28 4.58c-.2-.2-.51-.2-.71 0s-.2.51 0 .71L5.98 6.7z" fill="#000000" opacity="1" data-original="#000000"></path></g></svg>