<svg xmlns="http://www.w3.org/2000/svg" version="1.1" xmlns:xlink="http://www.w3.org/1999/xlink" width="512" height="512" x="0" y="0" viewBox="0 0 25 25" style="enable-background:new 0 0 512 512" xml:space="preserve" class=""><g><path d="M21.409 5.172A.5.5 0 0 0 21.052 5c-.05 0-4.991-.2-8.233-2.889a.5.5 0 0 0-.638 0C8.939 4.807 4 5 3.948 5a.5.5 0 0 0-.481.543s.463 5.344.66 7.556c.2 2.179.559 6.232 8.158 9.849a.506.506 0 0 0 .43 0c7.6-3.617 7.963-7.67 8.158-9.849.2-2.212.66-7.556.66-7.556a.5.5 0 0 0-.124-.371zm-1.532 7.843c-.176 1.959-.5 5.587-7.377 8.93-6.877-3.343-7.2-6.971-7.377-8.93-.16-1.8-.5-5.66-.616-7.046a16.2 16.2 0 0 0 7.993-2.83 16.2 16.2 0 0 0 7.993 2.83c-.12 1.386-.456 5.249-.616 7.046zm-8.089.445 2.545-3.039a.5.5 0 0 1 .768.642l-2.945 3.515a.5.5 0 0 1-.384.18h-.009a.5.5 0 0 1-.386-.195l-1.489-1.93a.5.5 0 1 1 .791-.611z" fill="#000000" opacity="1" data-original="#000000"></path></g></svg>