<svg xmlns="http://www.w3.org/2000/svg" version="1.1" xmlns:xlink="http://www.w3.org/1999/xlink" width="512" height="512" x="0" y="0" viewBox="0 0 32 32" style="enable-background:new 0 0 512 512" xml:space="preserve" class=""><g><path d="M18.514 28h-9.91c-1.655 0-3-1.346-3-3V7c0-1.654 1.345-3 3-3h14c1.654 0 3 1.346 3 3v14.3c0 .267.108.507.278.686a.992.992 0 0 0 .722.314 1 1 0 0 0 1-1V7c0-2.757-2.244-5-5-5h-14c-2.757 0-5 2.243-5 5v18c0 2.757 2.243 5 5 5h9.91a1 1 0 0 0 1-1 .993.993 0 0 0-.28-.687.992.992 0 0 0-.72-.313z" fill="#000000" opacity="1" data-original="#000000" class=""></path><path d="M21.604 15h-12a1 1 0 1 0 0 2h12a1 1 0 1 0 0-2zM21.604 10h-12a1 1 0 1 0 0 2h12a1 1 0 1 0 0-2zM21.604 20h-12a1 1 0 1 0 0 2h12a1 1 0 1 0 0-2zM21.103 26.048a.987.987 0 0 0-.284.757.989.989 0 0 0 .284.657l2.026 2.025a.997.997 0 0 0 1.414 0l3.56-3.56a1 1 0 1 0-1.414-1.414l-2.853 2.853-1.32-1.318a.983.983 0 0 0-.612-.275.983.983 0 0 0-.801.275z" fill="#000000" opacity="1" data-original="#000000" class=""></path></g></svg>