<svg xmlns="http://www.w3.org/2000/svg" version="1.1" xmlns:xlink="http://www.w3.org/1999/xlink" width="512" height="512" x="0" y="0" viewBox="0 0 512 512" style="enable-background:new 0 0 512 512" xml:space="preserve" class=""><g><path d="M449.767 446.136 393.41 332.792l12.298-5.922a16.002 16.002 0 0 0 8.657-10.855l8.462-37.073 23.709-29.73a15.998 15.998 0 0 0 3.089-13.536l-8.461-37.072 8.461-37.073a16.003 16.003 0 0 0-3.089-13.537l-23.709-29.729-8.462-37.073a16 16 0 0 0-8.657-10.855l-34.26-16.499-23.709-29.73a16 16 0 0 0-12.509-6.024h-38.026l-34.262-16.5a16.006 16.006 0 0 0-13.885 0l-34.26 16.499h-38.026a15.998 15.998 0 0 0-12.509 6.024l-23.709 29.73-34.26 16.499a16.002 16.002 0 0 0-8.657 10.855l-8.462 37.073-23.709 29.729a15.999 15.999 0 0 0-3.089 13.537l8.461 37.073-8.461 37.072a16 16 0 0 0 3.089 13.536l23.709 29.73 8.462 37.073a16 16 0 0 0 8.657 10.855l12.298 5.922-56.357 113.344a15.998 15.998 0 0 0 14.327 23.123h.036l45.669-.102 27.476 36.47a16 16 0 0 0 27.106-2.505l57.075-114.79 15.136 7.289a16 16 0 0 0 13.884 0l15.136-7.289 57.075 114.79a16.003 16.003 0 0 0 14.329 8.877c4.994 0 9.738-2.339 12.777-6.372l27.476-36.47 45.669.102c5.521.051 10.701-2.848 13.627-7.558s3.204-10.6.735-15.565zm-290.046 19.557-16.711-22.181c-3.031-4.023-7.757-6.361-12.815-6.373l-27.781.062 43.385-87.256 18.464 23.153a16 16 0 0 0 12.509 6.024h25.992l-43.043 86.57zm96.28-102.245-30.609-14.74a15.998 15.998 0 0 0-6.942-1.584h-33.973l-21.182-26.561a16.004 16.004 0 0 0-5.567-4.44l-30.608-14.74-7.56-33.121a16.008 16.008 0 0 0-3.089-6.415l-21.182-26.562 7.56-33.121a15.998 15.998 0 0 0 0-7.121l-7.56-33.121 21.182-26.561a15.98 15.98 0 0 0 3.089-6.416l7.56-33.122 30.608-14.74a16.004 16.004 0 0 0 5.567-4.439l21.182-26.561h33.973c2.404 0 4.776-.542 6.942-1.584l30.609-14.74 30.609 14.74a15.998 15.998 0 0 0 6.942 1.584h33.973l21.182 26.561a16.001 16.001 0 0 0 5.567 4.439l30.608 14.74 7.56 33.122a16.019 16.019 0 0 0 3.089 6.416l21.182 26.561-7.56 33.121a15.998 15.998 0 0 0 0 7.121l7.56 33.121-21.182 26.562a15.982 15.982 0 0 0-3.089 6.415l-7.56 33.121-30.608 14.74a15.995 15.995 0 0 0-5.567 4.44l-21.182 26.561h-33.973c-2.404 0-4.776.542-6.942 1.584zm125.806 73.692c-5.056.031-9.784 2.35-12.815 6.373l-16.711 22.181-43.043-86.57h25.992c4.869 0 9.474-2.217 12.509-6.024l18.464-23.153 43.385 87.256-27.781-.062z" fill="#000000" opacity="1" data-original="#000000" class=""></path><path d="M380 198.604c0-68.374-55.626-124-124-124s-124 55.626-124 124 55.626 124 124 124 124-55.626 124-124zm-124 92c-50.729 0-92-41.271-92-92s41.271-92 92-92 92 41.271 92 92-41.271 92-92 92z" fill="#000000" opacity="1" data-original="#000000" class=""></path><path d="m246.812 202.56-28.817-23.054-19.99 24.987 40 32a15.953 15.953 0 0 0 9.991 3.506c4.114 0 8.211-1.58 11.317-4.687l56-56-22.627-22.627-45.874 45.874z" fill="#000000" opacity="1" data-original="#000000" class=""></path></g></svg>