<svg xmlns="http://www.w3.org/2000/svg" version="1.1" xmlns:xlink="http://www.w3.org/1999/xlink" width="512" height="512" x="0" y="0" viewBox="0 0 32 32" style="enable-background:new 0 0 512 512" xml:space="preserve"><g><path d="M24 17c-3.86 0-7 3.14-7 7s3.14 7 7 7 7-3.14 7-7-3.14-7-7-7zm0 12c-2.76 0-5-2.24-5-5s2.24-5 5-5 5 2.24 5 5-2.24 5-5 5zm3-5c0 .55-.45 1-1 1h-1v1c0 .55-.45 1-1 1s-1-.45-1-1v-1h-1c-.55 0-1-.45-1-1s.45-1 1-1h1v-1c0-.55.45-1 1-1s1 .45 1 1v1h1c.55 0 1 .45 1 1zM16.83 5.6c-.37.55-1.29.55-1.66 0-.83-1.25-2.5-2.18-4.44-2.49-2.11-.33-4.13.11-5.54 1.22C1.15 7.5 3.8 13.44 4.37 14.6c3.37 6.75 10.42 11.9 10.49 11.95.45.32.55.95.22 1.4a1 1 0 0 1-1.39.22c-.31-.22-7.51-5.48-11.11-12.68C.67 11.61-.12 5.95 3.96 2.76 5.8 1.3 8.39.71 11.04 1.13c1.97.32 3.74 1.17 4.96 2.36 1.22-1.19 2.99-2.04 4.96-2.36 2.66-.42 5.24.17 7.09 1.62 4.07 3.2 3.29 8.85 1.38 12.73-.25.49-.84.7-1.34.46-.5-.25-.7-.84-.46-1.34.57-1.16 3.22-7.1-.82-10.27-1.41-1.11-3.43-1.55-5.54-1.22-1.94.31-3.6 1.24-4.44 2.49z" fill="#000000" opacity="1" data-original="#000000"></path></g></svg>