<svg xmlns="http://www.w3.org/2000/svg" xmlns:xlink="http://www.w3.org/1999/xlink" version="1.1" x="0" y="0" viewBox="2.700000047683716 9 94.70000457763672 82" style="enable-background:new 0 0 100 100;" xml:space="preserve" height="92.11078462019378" width="106.37672835587878" class="icon-icon-0" data-fill-palette-color="accent" id="icon-0"><path d="M88 64.5V86.5C88 89 86 91 83.5 91H16.9C14.4 91 12.4 89 12.4 86.5V64.5C17.6 65.2 22.8 63.4 26.4 59.8 29.5 62.9 33.8 64.7 38.3 64.7S47 62.9 50.2 59.8C53.3 62.9 57.6 64.7 62.1 64.7S70.8 62.9 74 59.8C77.6 63.4 82.7 65.2 88 64.5M84.6 9H15.8C13.9 9 12.3 10.2 11.6 11.9L3 31.4C2.8 31.9 2.7 32.5 2.7 33V48.7C2.7 49.9 3.2 51.1 4 51.9 11.7 59.3 20.4 57.2 24.3 51.5 25.3 50.1 27.4 50 28.4 51.4 30.5 54.6 34.1 56.6 38.2 56.6S45.9 54.5 48 51.4C49 50 51.1 50 52.1 51.4 54.2 54.6 57.8 56.6 61.9 56.6S69.6 54.5 71.7 51.4C72.7 50 74.8 50 75.8 51.5 79.7 57.2 88.5 59.3 96.1 51.9 97 51.1 97.4 49.9 97.4 48.7V33C97.4 32.5 97.3 31.9 97.1 31.4L88.5 11.9C88.1 10.2 86.5 9 84.6 9" fill="#6a8dff" data-fill-palette-color="accent"></path></svg>